<?xml version="1.0" encoding="UTF-8"?>
<svg version="1.1" xmlns="http://www.w3.org/2000/svg" width="500" height="500">
<path d="M0 0 C0.33 0 0.66 0 1 0 C1.14695312 0.6290625 1.29390625 1.258125 1.4453125 1.90625 C3.23711027 8.74391504 5.9721838 13.9721838 11 19 C12.91911858 19.37073882 14.84884256 19.68675992 16.78125 19.98046875 C18.00320068 20.17165283 19.22515137 20.36283691 20.48413086 20.55981445 C21.46541458 20.71240219 21.46541458 20.71240219 22.46652222 20.86807251 C48.5007513 24.95764188 73.96946248 30.90164736 98 42 C94.63001422 43.12332859 93.73284284 42.86795232 90.4140625 41.92578125 C89.49447754 41.67223877 88.57489258 41.41869629 87.62744141 41.1574707 C86.63663574 40.87863037 85.64583008 40.59979004 84.625 40.3125 C69.19206789 36.14727297 53.79940962 33.22713191 37.9375 31.25 C36.92703613 31.12214111 35.91657227 30.99428223 34.87548828 30.86254883 C21.59733924 28.70482419 21.59733924 28.70482419 9.5625 32.8125 C5.30666566 37.13052816 3.10971043 42.39101026 1 48 C2.42892578 48.09087891 2.42892578 48.09087891 3.88671875 48.18359375 C5.14097656 48.26738281 6.39523437 48.35117188 7.6875 48.4375 C8.92886719 48.51871094 10.17023438 48.59992188 11.44921875 48.68359375 C15 49 15 49 17.29077148 49.51806641 C20.54753586 50.09739892 23.59039114 50.07646443 26.8984375 50.02734375 C28.26830444 50.01276108 29.63817798 49.99878809 31.00805664 49.98535156 C31.72124054 49.97701294 32.43442444 49.96867432 33.16921997 49.96008301 C44.15338885 49.84762593 55.10535569 49.87801303 66.0625 50.75 C66.96339355 50.81179443 67.86428711 50.87358887 68.79248047 50.93725586 C73.92797991 51.40880325 77.84082349 52.5516034 82.34912109 55.07739258 C84.64502776 56.36047913 86.35976953 56.93230178 89 57 C90.54729209 56.29362752 92.09230905 55.5815193 93.62109375 54.8359375 C99.10966561 52.90727678 105.23347294 52.63082986 111 52 C109.35 50.68 107.7 49.36 106 48 C111.40904936 48.59336154 115.79660548 50.45013208 120.6875 52.6875 C121.48478516 53.04908203 122.28207031 53.41066406 123.10351562 53.78320312 C139.76885564 61.41979445 158.05236355 71.85865792 165.109375 89.82421875 C167.75233113 99.2484439 166.67490412 109.43144258 162 118 C142.19526954 147.36424393 101.59078448 156.63607098 69 163 C48.14435154 166.9235826 27.14370094 169.29691659 6 171 C5.14374023 171.07202637 4.28748047 171.14405273 3.40527344 171.21826172 C-4.33686194 171.84976 -11.99789865 172.02094201 -19.765625 171.87890625 C-21.17447485 171.85882566 -22.58332912 171.83905304 -23.9921875 171.81958008 C-26.78560236 171.78050324 -29.57514811 171.7062584 -32.3671875 171.61206055 C-40.01069237 171.20350698 -40.01069237 171.20350698 -46.74609375 174.203125 C-48.80741368 176.7610194 -50.42496948 179.030035 -51.8125 182 C-52.21082031 182.825 -52.60914063 183.65 -53.01953125 184.5 C-53.99908898 186.99767708 -54.56126423 189.35815022 -55 192 C-57 191 -57 191 -57.640625 189.21484375 C-57.84171875 188.46332031 -58.0428125 187.71179688 -58.25 186.9375 C-60.48158263 180.02289177 -63.76377886 174.85170753 -70.3359375 171.4453125 C-76.66900586 168.41602837 -83.18888168 167.32060455 -90.0625 166.125 C-92.74219953 165.62790856 -95.41840967 165.11375418 -98.09375 164.59375 C-98.76245621 164.46400787 -99.43116241 164.33426575 -100.12013245 164.20059204 C-114.72156392 161.317223 -128.94845748 156.96838224 -142.875 151.75 C-143.75551025 151.42080566 -144.63602051 151.09161133 -145.54321289 150.75244141 C-146.35137451 150.43710449 -147.15953613 150.12176758 -147.9921875 149.796875 C-148.69714355 149.52198242 -149.40209961 149.24708984 -150.12841797 148.96386719 C-152.17010112 147.9123977 -153.47074575 146.69837459 -155 145 C-154.10023438 145.23074219 -153.20046875 145.46148437 -152.2734375 145.69921875 C-147.85500177 146.82418846 -143.4280463 147.91358096 -139 149 C-137.77144287 149.30478271 -137.77144287 149.30478271 -136.51806641 149.61572266 C-117.92660399 154.19092331 -99.07065474 157.27303256 -80 159 C-79.31196289 159.07283203 -78.62392578 159.14566406 -77.91503906 159.22070312 C-69.9238658 160.20214335 -69.9238658 160.20214335 -62.8125 157.30859375 C-61.15663969 154.92829456 -60.04692835 152.70253598 -59 150 C-58.66742188 149.14148438 -58.33484375 148.28296875 -57.9921875 147.3984375 C-57.24535929 145.27906016 -56.58451811 143.16886984 -56 141 C-55.67 141 -55.34 141 -55 141 C-54.82984375 141.65226563 -54.6596875 142.30453125 -54.484375 142.9765625 C-53.00583033 148.30876082 -51.45472551 152.57363294 -48 157 C-47.62190186 157.54237305 -47.24380371 158.08474609 -46.85424805 158.64355469 C-43.92968466 160.78297196 -40.80985043 160.36401155 -37.33203125 160.265625 C-36.57630325 160.25404358 -35.82057526 160.24246216 -35.04194641 160.23052979 C-27.2319249 160.06791934 -19.46256336 159.48166978 -11.6875 158.75 C-10.95944153 158.6830896 -10.23138306 158.6161792 -9.48126221 158.54724121 C32.97742713 154.61905592 78.73245225 148.08447274 116 126 C114.3036029 124.3036029 112.05355451 124.56807979 109.7265625 124.31640625 C108.60386963 124.19458984 107.48117676 124.07277344 106.32446289 123.94726562 C105.10364014 123.82029297 103.88281738 123.69332031 102.625 123.5625 C101.38032959 123.42908203 100.13565918 123.29566406 98.85327148 123.15820312 C92.34224742 122.47986051 85.84185084 121.89379073 79.30859375 121.46484375 C77.48303955 121.34484009 77.48303955 121.34484009 75.62060547 121.22241211 C73.28834457 121.0766258 70.95529232 120.94288775 68.62158203 120.82250977 C67.56181152 120.75733154 66.50204102 120.69215332 65.41015625 120.625 C64.02002319 120.55152344 64.02002319 120.55152344 62.60180664 120.4765625 C59.49309024 119.90715137 57.55556801 118.84212611 55 117 C54.34 116.01 53.68 115.02 53 114 C52.38125 114.65226562 51.7625 115.30453125 51.125 115.9765625 C46.7270125 118.82425941 43.12264287 118.51605828 38 118.375 C37.11054688 118.37371094 36.22109375 118.37242187 35.3046875 118.37109375 C28.69878463 118.28235774 28.69878463 118.28235774 25.3125 116.9140625 C22.59531635 115.84004058 20.91824579 116.27988197 18.09680557 116.73102951 C14.05641112 117.24931642 9.98960126 117.18882029 5.92138672 117.22119141 C4.9335318 117.2326973 3.94567688 117.24420319 2.92788696 117.25605774 C-0.32148194 117.29259461 -3.57087024 117.32233321 -6.8203125 117.3515625 C-9.08519753 117.37469384 -11.35007992 117.3980843 -13.61495972 117.42172241 C-18.35412215 117.47008606 -23.09330177 117.51503066 -27.83251953 117.55761719 C-33.9066235 117.6125141 -39.98059526 117.6763515 -46.0545826 117.74279213 C-50.72822739 117.79285926 -55.40190999 117.83798416 -60.07561874 117.88163376 C-62.31553593 117.90318993 -64.5554384 117.92633578 -66.79532242 117.9510994 C-69.92358435 117.98498616 -73.0518352 118.01216907 -76.18017578 118.03759766 C-77.56737823 118.05466011 -77.56737823 118.05466011 -78.98260498 118.07206726 C-83.15908511 118.09939426 -86.90908422 117.93624813 -91 117 C-93.35909872 117.48081713 -93.35909872 117.48081713 -95.6875 118.375 C-100.8100271 120.0394413 -105.63351687 120.72567498 -111 121 C-111.78632813 121.04125 -112.57265625 121.0825 -113.3828125 121.125 C-121.94780487 121.35727098 -128.01606898 118.75270111 -135 114 C-135.37125 114.928125 -135.7425 115.85625 -136.125 116.8125 C-138.41872974 120.71184055 -139.83786881 121.32476579 -144 123 C-146.98358964 123.67598595 -149.96038334 124.04896851 -153 124.375 C-154.17175781 124.53548828 -154.17175781 124.53548828 -155.3671875 124.69921875 C-160.39244122 125.2660403 -163.78630816 125.17280963 -168 122 C-171.10247219 116.68339906 -171.6714162 111.43543363 -172.1875 105.375 C-172.3102832 104.12589844 -172.3102832 104.12589844 -172.43554688 102.8515625 C-172.81089761 98.88987746 -173.10569485 94.9838829 -173 91 C-174.0725 90.773125 -175.145 90.54625 -176.25 90.3125 C-180.54651544 88.80871959 -181.81355762 87.95241506 -184 84 C-184.59315042 81.0040877 -184.86715371 78.04882233 -185 75 C-185.66 75 -186.32 75 -187 75 C-187.2784375 75.58136719 -187.556875 76.16273438 -187.84375 76.76171875 C-188.94388632 78.89137453 -190.16970143 80.82110794 -191.5 82.8125 C-196.17850844 90.30639405 -197.32161826 98.14472924 -195.3828125 106.734375 C-190.0201833 123.53411604 -175.40070288 132.51306539 -161 141 C-163 142 -163 142 -164.71728516 141.52197266 C-165.40097168 141.2388623 -166.0846582 140.95575195 -166.7890625 140.6640625 C-167.55814941 140.34622803 -168.32723633 140.02839355 -169.11962891 139.70092773 C-169.94640137 139.34587158 -170.77317383 138.99081543 -171.625 138.625 C-172.47368652 138.262854 -173.32237305 137.90070801 -174.19677734 137.52758789 C-191.21859174 130.1033823 -211.37984562 119.77656691 -220.0625 102.44140625 C-223.86738796 92.53284385 -223.66771895 82.66505419 -219.4375 72.9375 C-206.87005624 50.26045203 -179.21753989 39.88715796 -155.75195312 33.05419922 C-123.33743274 24.05592083 -90.14582324 19.71515942 -56.625 17.8125 C-55.84228729 17.76753387 -55.05957458 17.72256775 -54.25314331 17.67623901 C-45.95544155 17.21421362 -37.71176743 16.92314208 -29.40234375 17.16015625 C-28.73017822 17.1759523 -28.0580127 17.19174835 -27.36547852 17.20802307 C-24.22327601 17.28482635 -21.09480073 17.40429851 -17.95751953 17.60083008 C-12.04591745 17.92864673 -12.04591745 17.92864673 -6.95996094 15.36816406 C-4.26995727 11.93264048 -2.30945455 8.21139394 -1.125 4 C-0.90070313 3.236875 -0.67640625 2.47375 -0.4453125 1.6875 C-0.29835938 1.130625 -0.15140625 0.57375 0 0 Z M-155 54 C-155 54.33 -155 54.66 -155 55 C-144.63015887 54.53032901 -134.28403436 53.90593653 -123.9375 53.0625 C-122.88618896 52.97701904 -121.83487793 52.89153809 -120.75170898 52.8034668 C-116.42834371 52.44979925 -112.10527029 52.0929306 -107.78271484 51.72949219 C-96.05066555 50.74750663 -84.33343279 49.89376403 -72.56640625 49.4765625 C-71.41581223 49.43495499 -70.2652182 49.39334747 -69.07975769 49.35047913 C-55.32732743 48.87633315 -41.57093619 48.65420311 -27.8125 48.4375 C-25.18944895 48.3941317 -22.56640204 48.35051294 -19.94335938 48.30664062 C-13.62895063 48.20155707 -7.31449909 48.09949872 -1 48 C-1.60091798 43.98795863 -2.0780123 41.2494662 -4.5625 38 C-5.01753906 37.38125 -5.47257813 36.7625 -5.94140625 36.125 C-10.13333532 31.79784741 -14.13856465 27.76631664 -20.3984375 27.30859375 C-22.05783216 27.31586216 -23.71733452 27.36141712 -25.375 27.4375 C-26.30562256 27.46046143 -27.23624512 27.48342285 -28.19506836 27.50708008 C-69.76440809 28.90439683 -118.27704294 33.02925873 -155 54 Z M-45 66 C-44.67 67.65 -44.34 69.3 -44 71 C-43.67 71 -43.34 71 -43 71 C-43 69.35 -43 67.7 -43 66 C-43.66 66 -44.32 66 -45 66 Z M-21 67 C-21 73.93 -21 80.86 -21 88 C-20.67 88 -20.34 88 -20 88 C-20 81.07 -20 74.14 -20 67 C-20.33 67 -20.66 67 -21 67 Z M-88 72 C-88 74.97 -88 77.94 -88 81 C-87.67 81 -87.34 81 -87 81 C-87 78.03 -87 75.06 -87 72 C-87.33 72 -87.66 72 -88 72 Z M137 79 C135.47822909 80.52177091 135.67942993 82.03811932 135.46484375 84.15625 C135.37783203 85.01476562 135.29082031 85.87328125 135.20117188 86.7578125 C135.11416016 87.66273438 135.02714844 88.56765625 134.9375 89.5 C134.84662109 90.37398437 134.75574219 91.24796875 134.66210938 92.1484375 C134.10503455 97.79457936 133.91352084 103.32696681 134 109 C139.83945858 102.18729832 140.94303068 95.83024475 141 87 C140.57174951 84.16662556 139.89412392 81.7349673 139 79 C138.34 79 137.68 79 137 79 Z M106 81 C106 82.32 106 83.64 106 85 C106.66 85 107.32 85 108 85 C108.33 83.68 108.66 82.36 109 81 C108.01 81 107.02 81 106 81 Z M-64 84 C-64 88.95 -64 93.9 -64 99 C-63.67 99 -63.34 99 -63 99 C-63 94.05 -63 89.1 -63 84 C-63.33 84 -63.66 84 -64 84 Z M-44 84 C-44 85.65 -44 87.3 -44 89 C-43.34 88.67 -42.68 88.34 -42 88 C-42.33 86.68 -42.66 85.36 -43 84 C-43.33 84 -43.66 84 -44 84 Z M79 85 C79.33 86.65 79.66 88.3 80 90 C80.99 90 81.98 90 83 90 C82.67 88.35 82.34 86.7 82 85 C81.01 85 80.02 85 79 85 Z M49 94 C49 94.99 49 95.98 49 97 C51.70879335 98.35439668 54.00933268 98.06501451 57 98 C57 97.01 57 96.02 57 95 C54.36 94.67 51.72 94.34 49 94 Z " fill="#252223" transform="translate(274,154)"/>
<path d="M0 0 C5.40904936 0.59336154 9.79660548 2.45013208 14.6875 4.6875 C15.48478516 5.04908203 16.28207031 5.41066406 17.10351562 5.78320312 C33.76885564 13.41979445 52.05236355 23.85865792 59.109375 41.82421875 C61.75233113 51.2484439 60.67490412 61.43144258 56 70 C36.19526954 99.36424393 -4.40921552 108.63607098 -37 115 C-57.85564846 118.9235826 -78.85629906 121.29691659 -100 123 C-100.85625977 123.07202637 -101.71251953 123.14405273 -102.59472656 123.21826172 C-110.33686194 123.84976 -117.99789865 124.02094201 -125.765625 123.87890625 C-127.17447485 123.85882566 -128.58332912 123.83905304 -129.9921875 123.81958008 C-132.78560236 123.78050324 -135.57514811 123.7062584 -138.3671875 123.61206055 C-146.01069237 123.20350698 -146.01069237 123.20350698 -152.74609375 126.203125 C-154.80741368 128.7610194 -156.42496948 131.030035 -157.8125 134 C-158.21082031 134.825 -158.60914063 135.65 -159.01953125 136.5 C-159.99908898 138.99767708 -160.56126423 141.35815022 -161 144 C-163 143 -163 143 -163.640625 141.21484375 C-163.94226563 140.08755859 -163.94226563 140.08755859 -164.25 138.9375 C-166.48158263 132.02289177 -169.76377886 126.85170753 -176.3359375 123.4453125 C-182.66900586 120.41602837 -189.18888168 119.32060455 -196.0625 118.125 C-198.74219953 117.62790856 -201.41840967 117.11375418 -204.09375 116.59375 C-204.76245621 116.46400787 -205.43116241 116.33426575 -206.12013245 116.20059204 C-220.72156392 113.317223 -234.94845748 108.96838224 -248.875 103.75 C-250.19576538 103.2562085 -250.19576538 103.2562085 -251.54321289 102.75244141 C-252.35137451 102.43710449 -253.15953613 102.12176758 -253.9921875 101.796875 C-254.69714355 101.52198242 -255.40209961 101.24708984 -256.12841797 100.96386719 C-258.17010112 99.9123977 -259.47074575 98.69837459 -261 97 C-260.10023438 97.23074219 -259.20046875 97.46148437 -258.2734375 97.69921875 C-253.85500177 98.82418846 -249.4280463 99.91358096 -245 101 C-243.77144287 101.30478271 -243.77144287 101.30478271 -242.51806641 101.61572266 C-223.92660399 106.19092331 -205.07065474 109.27303256 -186 111 C-184.96794434 111.10924805 -184.96794434 111.10924805 -183.91503906 111.22070312 C-175.9238658 112.20214335 -175.9238658 112.20214335 -168.8125 109.30859375 C-167.15663969 106.92829456 -166.04692835 104.70253598 -165 102 C-164.50113281 100.71222656 -164.50113281 100.71222656 -163.9921875 99.3984375 C-163.24535929 97.27906016 -162.58451811 95.16886984 -162 93 C-161.67 93 -161.34 93 -161 93 C-160.82984375 93.65226562 -160.6596875 94.30453125 -160.484375 94.9765625 C-159.00583033 100.30876082 -157.45472551 104.57363294 -154 109 C-153.62190186 109.54237305 -153.24380371 110.08474609 -152.85424805 110.64355469 C-149.92968466 112.78297196 -146.80985043 112.36401155 -143.33203125 112.265625 C-142.57630325 112.25404358 -141.82057526 112.24246216 -141.04194641 112.23052979 C-133.2319249 112.06791934 -125.46256336 111.48166978 -117.6875 110.75 C-116.95944153 110.6830896 -116.23138306 110.6161792 -115.48126221 110.54724121 C-74.24989908 106.73260546 -29.34210781 100.60970064 7.0625 79.5625 C11.22059096 77.16999844 14.39418583 76.58283224 19.125 76.3125 C21.28307877 76.11715338 21.28307877 76.11715338 23.4375 73.9375 C24.96038144 71.0744829 25.65459842 68.51524349 26.30078125 65.35546875 C27.17746921 62.40215679 28.57802726 59.94743858 30.0625 57.25 C34.14626045 49.29267265 35.01146786 42.06092305 32.8125 33.375 C32.23331242 31.57510318 31.62915639 29.78304488 31 28 C30.72027344 27.10925781 30.44054687 26.21851563 30.15234375 25.30078125 C27.59998177 17.90887578 23.8923131 14.0272464 17 10.4375 C16.01 9.963125 15.02 9.48875 14 9 C12.84094075 8.18516252 11.69565296 7.35049565 10.5625 6.5 C7.21203585 4.02454546 3.87778186 2.5036297 0 1 C0 0.67 0 0.34 0 0 Z " fill="#F0F0F0" transform="translate(380,202)"/>
<path d="M0 0 C0.33 0 0.66 0 1 0 C1.14695312 0.6290625 1.29390625 1.258125 1.4453125 1.90625 C3.23711027 8.74391504 5.9721838 13.9721838 11 19 C12.91911858 19.37073882 14.84884256 19.68675992 16.78125 19.98046875 C18.00320068 20.17165283 19.22515137 20.36283691 20.48413086 20.55981445 C21.46541458 20.71240219 21.46541458 20.71240219 22.46652222 20.86807251 C48.5007513 24.95764188 73.96946248 30.90164736 98 42 C94.63001422 43.12332859 93.73284284 42.86795232 90.4140625 41.92578125 C89.49447754 41.67223877 88.57489258 41.41869629 87.62744141 41.1574707 C86.63663574 40.87863037 85.64583008 40.59979004 84.625 40.3125 C69.19206789 36.14727297 53.79940962 33.22713191 37.9375 31.25 C36.92703613 31.12214111 35.91657227 30.99428223 34.87548828 30.86254883 C21.6205832 28.71939674 21.6205832 28.71939674 9.5625 32.75 C5.06824845 37.30054697 3.03584933 43.03926807 1 49 C-1.62763258 47.68618371 -1.70509168 46.57892942 -2.75 43.875 C-5.5353623 37.37236979 -9.45298824 32.01623848 -16 29 C-19.06836233 28.54551472 -22.0905575 28.57575181 -25.1875 28.625 C-26.13165771 28.63442627 -27.07581543 28.64385254 -28.04858398 28.65356445 C-70.1960225 29.49097497 -113.88787502 36.05379113 -152.5625 53.3125 C-159.12722587 56.20960907 -165.36566945 57.6457376 -172.50390625 58.19140625 C-176.09372761 58.46936606 -178.69577955 58.86056562 -182 60.375 C-184.30071526 63.39468878 -184.18588147 64.26671389 -184.25 67.9375 C-184.51239512 74.69643633 -187.86346087 78.73886814 -191.87109375 83.859375 C-196.07693094 90.06394949 -196.8321696 96.70251275 -196 104 C-192.76975347 118.31121882 -182.43301847 127.66493344 -170.47265625 135.2734375 C-167.34183559 137.22761077 -164.17959463 139.12613232 -161 141 C-163 142 -163 142 -164.71728516 141.52197266 C-165.40097168 141.2388623 -166.0846582 140.95575195 -166.7890625 140.6640625 C-167.55814941 140.34622803 -168.32723633 140.02839355 -169.11962891 139.70092773 C-169.94640137 139.34587158 -170.77317383 138.99081543 -171.625 138.625 C-172.47368652 138.262854 -173.32237305 137.90070801 -174.19677734 137.52758789 C-191.21859174 130.1033823 -211.37984562 119.77656691 -220.0625 102.44140625 C-223.86738796 92.53284385 -223.66771895 82.66505419 -219.4375 72.9375 C-206.87005624 50.26045203 -179.21753989 39.88715796 -155.75195312 33.05419922 C-123.33743274 24.05592083 -90.14582324 19.71515942 -56.625 17.8125 C-55.84228729 17.76753387 -55.05957458 17.72256775 -54.25314331 17.67623901 C-45.95544155 17.21421362 -37.71176743 16.92314208 -29.40234375 17.16015625 C-28.73017822 17.1759523 -28.0580127 17.19174835 -27.36547852 17.20802307 C-24.22327601 17.28482635 -21.09480073 17.40429851 -17.95751953 17.60083008 C-12.04591745 17.92864673 -12.04591745 17.92864673 -6.95996094 15.36816406 C-4.26995727 11.93264048 -2.30945455 8.21139394 -1.125 4 C-0.90070313 3.236875 -0.67640625 2.47375 -0.4453125 1.6875 C-0.29835938 1.130625 -0.15140625 0.57375 0 0 Z " fill="#F1F1F1" transform="translate(274,154)"/>
<path d="M0 0 C1.22976562 -0.00386719 2.45953125 -0.00773438 3.7265625 -0.01171875 C5.47453125 -0.00978516 5.47453125 -0.00978516 7.2578125 -0.0078125 C8.31371582 -0.00668457 9.36961914 -0.00555664 10.45751953 -0.00439453 C12.875 0.125 12.875 0.125 13.875 1.125 C14.12011562 3.67299195 14.30261598 6.19551267 14.4375 8.75 C14.4799585 9.50531006 14.52241699 10.26062012 14.56616211 11.03881836 C14.94809796 18.40472395 14.97160435 25.75086762 14.875 33.125 C15.535 32.795 16.195 32.465 16.875 32.125 C17.205 21.565 17.535 11.005 17.875 0.125 C22.5465625 0.0940625 22.5465625 0.0940625 27.3125 0.0625 C28.78674438 0.04884399 28.78674438 0.04884399 30.29077148 0.03491211 C31.44428101 0.03116577 31.44428101 0.03116577 32.62109375 0.02734375 C33.41185303 0.02210693 34.2026123 0.01687012 35.01733398 0.01147461 C36.875 0.125 36.875 0.125 37.875 1.125 C37.96840434 2.75174778 37.99245171 4.38254051 37.98852539 6.01196289 C37.98841209 7.57346825 37.98841209 7.57346825 37.98829651 9.16651917 C37.98313522 10.2987944 37.97797394 11.43106964 37.97265625 12.59765625 C37.9712413 13.75043564 37.96982635 14.90321503 37.96836853 16.09092712 C37.96275005 19.78981064 37.95019442 23.48863464 37.9375 27.1875 C37.93248738 29.68815017 37.92792406 32.18880129 37.92382812 34.68945312 C37.91277462 40.83465588 37.89601852 46.97982369 37.875 53.125 C34.23708581 53.29148341 30.59902823 53.45461145 26.9609375 53.6171875 C25.94249756 53.66383545 24.92405762 53.7104834 23.87475586 53.75854492 C6.95195442 54.50961688 6.95195442 54.50961688 -1.125 54.125 C-3.03719585 52.21280415 -2.36935298 48.78854496 -2.44140625 46.24609375 C-2.46218735 45.5594313 -2.48296844 44.87276886 -2.50437927 44.16529846 C-2.56994143 41.96447065 -2.62879015 39.76352025 -2.6875 37.5625 C-2.73067892 36.07355486 -2.774293 34.58462227 -2.81835938 33.09570312 C-2.9256293 29.43893447 -3.02687772 25.78202682 -3.125 22.125 C-3.785 21.795 -4.445 21.465 -5.125 21.125 C-5.125 32.015 -5.125 42.905 -5.125 54.125 C-11.725 54.125 -18.325 54.125 -25.125 54.125 C-25.26960492 49.29106394 -25.41269198 44.45712558 -25.55224609 39.62304688 C-25.59991512 37.98630364 -25.64838807 36.34958357 -25.69775391 34.71289062 C-25.95569836 26.1428179 -26.17547547 17.57419238 -26.21875 9 C-26.22583984 7.69804687 -26.23292969 6.39609375 -26.24023438 5.0546875 C-26.125 2.125 -26.125 2.125 -25.125 1.125 C-16.8277417 -0.1646979 -8.37206717 -0.02718204 0 0 Z " fill="#FBFBFB" transform="translate(214.125,209.875)"/>
<path d="M0 0 C1.02019573 0.9793879 2.02149805 1.97895449 3 3 C5.16299211 2.77242269 5.16299211 2.77242269 7 2 C7.33 2.99 7.66 3.98 8 5 C8.99 5.66 9.98 6.32 11 7 C10.125 11.75 10.125 11.75 9 14 C8.7994025 15.32475566 8.64612466 16.65688266 8.51928711 17.99072266 C8.43927963 18.81142242 8.35927216 19.63212219 8.27684021 20.47769165 C8.15333946 21.80744522 8.15333946 21.80744522 8.02734375 23.1640625 C7.8962899 24.52487442 7.8962899 24.52487442 7.7625885 25.91317749 C7.4838235 28.81677523 7.21060189 31.72086467 6.9375 34.625 C6.74971325 36.59118066 6.5615668 38.557327 6.37304688 40.5234375 C5.9111866 45.34856971 5.45429792 50.17415014 5 55 C9.18732692 55.90783007 13.0197449 56.10261921 17.3125 56.0625 C18.56675781 56.05347656 19.82101562 56.04445313 21.11328125 56.03515625 C22.54220703 56.01775391 22.54220703 56.01775391 24 56 C24.33 52.7 24.66 49.4 25 46 C25.99 46 26.98 46 28 46 C28 49.96 28 53.92 28 58 C34.27 58.33 40.54 58.66 47 59 C49.42033258 40.11781147 49.42033258 40.11781147 50.5 21.125 C50.53029297 20.36662842 50.56058594 19.60825684 50.59179688 18.8269043 C50.59533321 14.96744039 50.13228651 13.17352469 47.76953125 10.07421875 C45.06636403 8.04970282 43.47152218 7.22666782 40.1875 6.6875 C39.39730469 6.54699219 38.60710937 6.40648437 37.79296875 6.26171875 C37.20128906 6.17535156 36.60960937 6.08898437 36 6 C36 5.67 36 5.34 36 5 C37.98 5 39.96 5 42 5 C42 4.34 42 3.68 42 3 C44 1.375 44 1.375 46 0 C54.8437866 5.34740585 57.91082679 11.3010316 61 21 C60.34 21.33 59.68 21.66 59 22 C58.48213273 24.94407347 58.48213273 24.94407347 58.25390625 28.52734375 C58.19726303 29.19028946 58.14061981 29.85323517 58.08226013 30.53627014 C57.83971185 33.37503962 57.61851187 36.21533806 57.39819336 39.0559082 C55.87646308 58.28260056 55.87646308 58.28260056 51.4375 65.5625 C47.5888279 67.8322297 43.42183839 68.03851776 39 68 C38.34 67.67 37.68 67.34 37 67 C35.21536517 66.73091613 33.42313915 66.51148549 31.62890625 66.31640625 C30.50943604 66.19458984 29.38996582 66.07277344 28.23657227 65.94726562 C27.02412842 65.82029297 25.81168457 65.69332031 24.5625 65.5625 C23.32234131 65.42908203 22.08218262 65.29566406 20.80444336 65.15820312 C14.31219646 64.47942537 7.82632996 63.89246029 1.3125 63.46484375 C0.0948999 63.38484131 -1.1227002 63.30483887 -2.37719727 63.22241211 C-4.71027466 63.07666477 -7.04413999 62.94292109 -9.37866211 62.82250977 C-10.43835205 62.75733154 -11.49804199 62.69215332 -12.58984375 62.625 C-13.51659912 62.57601562 -14.44335449 62.52703125 -15.39819336 62.4765625 C-18.50690976 61.90715137 -20.44443199 60.84212611 -23 59 C-23.66 58.01 -24.32 57.02 -25 56 C-25.928125 56.97839844 -25.928125 56.97839844 -26.875 57.9765625 C-31.2729875 60.82425941 -34.87735713 60.51605828 -40 60.375 C-40.88945312 60.37371094 -41.77890625 60.37242187 -42.6953125 60.37109375 C-49.30121537 60.28235774 -49.30121537 60.28235774 -52.6875 58.9140625 C-55.40468365 57.84004058 -57.08175421 58.27988197 -59.90319443 58.73102951 C-63.94358888 59.24931642 -68.01039874 59.18882029 -72.07861328 59.22119141 C-73.56039566 59.23845024 -73.56039566 59.23845024 -75.07211304 59.25605774 C-78.32148194 59.29259461 -81.57087024 59.32233321 -84.8203125 59.3515625 C-87.08519753 59.37469384 -89.35007992 59.3980843 -91.61495972 59.42172241 C-96.35412215 59.47008606 -101.09330177 59.51503066 -105.83251953 59.55761719 C-111.9066235 59.6125141 -117.98059526 59.6763515 -124.0545826 59.74279213 C-128.72822739 59.79285926 -133.40190999 59.83798416 -138.07561874 59.88163376 C-140.31553593 59.90318993 -142.5554384 59.92633578 -144.79532242 59.9510994 C-147.92358435 59.98498616 -151.0518352 60.01216907 -154.18017578 60.03759766 C-155.10497742 60.04897263 -156.02977905 60.0603476 -156.98260498 60.07206726 C-161.16919849 60.09946043 -164.89329287 59.88667296 -169 59 C-170.6760396 59.64273905 -172.34228204 60.31138299 -174 61 C-177.04614258 61.22705078 -177.04614258 61.22705078 -180.39453125 61.1953125 C-181.59658203 61.18886719 -182.79863281 61.18242187 -184.03710938 61.17578125 C-185.28298828 61.15902344 -186.52886719 61.14226562 -187.8125 61.125 C-189.71032227 61.11146484 -189.71032227 61.11146484 -191.64648438 61.09765625 C-194.76451564 61.07412394 -197.88216097 61.04124545 -201 61 C-200.505 58.03 -200.505 58.03 -200 55 C-198.95658447 54.93268677 -198.95658447 54.93268677 -197.89208984 54.86401367 C-194.71867973 54.65176577 -191.54700118 54.41982073 -188.375 54.1875 C-187.28058594 54.11724609 -186.18617188 54.04699219 -185.05859375 53.97460938 C-177.10587484 53.41577074 -177.10587484 53.41577074 -170 50 C-168.09793151 46.94960779 -168.09793151 46.94960779 -167 44 C-166.34 44 -165.68 44 -165 44 C-164.67 34.76 -164.34 25.52 -164 16 C-163.67 16 -163.34 16 -163 16 C-163 27.88 -163 39.76 -163 52 C-156.4 52 -149.8 52 -143 52 C-143 41.11 -143 30.22 -143 19 C-142.01 19.33 -141.02 19.66 -140 20 C-139.67 30.23 -139.34 40.46 -139 51 C-126.13 51 -113.26 51 -100 51 C-100 44.73 -100 38.46 -100 32 C-99.67 32 -99.34 32 -99 32 C-99 33.65 -99 35.3 -99 37 C-98.34 37 -97.68 37 -97 37 C-97 41.62 -97 46.24 -97 51 C-91.96381253 50.9805582 -86.92936727 50.9287785 -81.89379883 50.84741211 C-80.18198141 50.82425975 -78.4700221 50.80984285 -76.75805664 50.80444336 C-74.29223502 50.79513297 -71.82863626 50.75410221 -69.36328125 50.70703125 C-68.22080681 50.71293022 -68.22080681 50.71293022 -67.05525208 50.71894836 C-63.06070334 50.61002466 -61.20204023 50.16084901 -58.03979492 47.64331055 C-55.41455234 44.2413355 -54.88233666 41.75189705 -54.75390625 37.578125 C-54.70459961 36.28648437 -54.70459961 36.28648437 -54.65429688 34.96875 C-54.59363027 33.17198578 -54.53627877 31.37510623 -54.48242188 29.578125 C-54.27885787 24.41604911 -53.9058677 19.83250521 -52 15 C-51.01 14.67 -50.02 14.34 -49 14 C-49.51394691 26.68011126 -50.08653098 39.34192931 -51 52 C-44.73 52 -38.46 52 -32 52 C-31.71082605 46.7796934 -31.71082605 46.7796934 -31.43188477 41.55883789 C-31.11111111 36.11111111 -31.11111111 36.11111111 -30 35 C-28.00200428 34.90126184 -26.00042842 34.87028201 -24 34.875 C-22.906875 34.87242187 -21.81375 34.86984375 -20.6875 34.8671875 C-18 35 -18 35 -17 36 C-16.91368126 37.34267413 -16.89293527 38.68974322 -16.90234375 40.03515625 C-16.90484131 40.76355713 -16.90733887 41.49195801 -16.90991211 42.24243164 C-16.91901611 43.1730542 -16.92812012 44.10367676 -16.9375 45.0625 C-16.958125 48.011875 -16.97875 50.96125 -17 54 C-10.73 54.33 -4.46 54.66 2 55 C2.13467879 51.56120157 2.23395791 48.1276436 2.3125 44.6875 C2.35439453 43.71103516 2.39628906 42.73457031 2.43945312 41.72851562 C2.4852209 39.0648309 2.47963007 36.62147631 2 34 C-0.23670061 31.76392519 -0.23670061 31.76392519 -3 31 C-3.66 30.67 -4.32 30.34 -5 30 C-5 29.01 -5 28.02 -5 27 C-4.05125 26.731875 -3.1025 26.46375 -2.125 26.1875 C1.25267273 25.25013412 1.25267273 25.25013412 3 22 C3.27395784 19.46516906 3.41562045 17.09809624 3.4375 14.5625 C3.47746094 13.24378906 3.51742187 11.92507812 3.55859375 10.56640625 C3.33923688 6.88036359 3.33923688 6.88036359 0.66015625 4.65234375 C-0.21769531 4.10707031 -1.09554687 3.56179687 -2 3 C-2.99 2.34 -3.98 1.68 -5 1 C-2.6875 0.3125 -2.6875 0.3125 0 0 Z M-142 26 C-142 30.95 -142 35.9 -142 41 C-141.67 41 -141.34 41 -141 41 C-141 36.05 -141 31.1 -141 26 C-141.33 26 -141.66 26 -142 26 Z M1 27 C1.33 28.65 1.66 30.3 2 32 C2.99 32 3.98 32 5 32 C4.67 30.35 4.34 28.7 4 27 C3.01 27 2.02 27 1 27 Z M-29 36 C-29 36.99 -29 37.98 -29 39 C-26.29120665 40.35439668 -23.99066732 40.06501451 -21 40 C-21 39.01 -21 38.02 -21 37 C-23.64 36.67 -26.28 36.34 -29 36 Z " fill="#242122" transform="translate(352,212)"/>
<path d="M0 0 C0.92756104 0.0407666 1.85512207 0.0815332 2.81079102 0.12353516 C3.84421631 0.16655762 4.8776416 0.20958008 5.94238281 0.25390625 C7.61167847 0.3324585 7.61167847 0.3324585 9.31469727 0.41259766 C10.44238525 0.46367676 11.57007324 0.51475586 12.73193359 0.56738281 C15.02589716 0.67248959 17.31976318 0.77974731 19.61352539 0.88916016 C22.51889554 1.02130147 25.42357907 1.12915114 28.33032227 1.22509766 C29.90846605 1.28712146 31.48659253 1.34958803 33.06469727 1.41259766 C34.12998657 1.44039307 34.12998657 1.44039307 35.21679688 1.46875 C40.62647387 1.71640144 44.27112588 3.30756295 48.72485352 6.26416016 C50.62302602 9.18541547 50.31133258 11.98735094 50.31469727 15.41259766 C50.3340332 16.71970703 50.35336914 18.02681641 50.37329102 19.37353516 C49.81264111 23.51439821 48.87661494 25.1802289 45.87719727 28.03759766 C43.12719727 28.35009766 43.12719727 28.35009766 40.87719727 28.03759766 C40.87719727 29.02759766 40.87719727 30.01759766 40.87719727 31.03759766 C41.82594727 31.32634766 42.77469727 31.61509766 43.75219727 31.91259766 C46.87719727 33.03759766 46.87719727 33.03759766 48.87719727 35.03759766 C49.01245117 37.19238281 49.01245117 37.19238281 48.85375977 39.82666016 C48.80219727 40.76767578 48.75063477 41.70869141 48.69750977 42.67822266 C48.63305664 43.66306641 48.56860352 44.64791016 48.50219727 45.66259766 C48.41711914 47.15146484 48.41711914 47.15146484 48.33032227 48.67041016 C48.18860485 51.12684532 48.03717449 53.58229501 47.87719727 56.03759766 C44.73138303 56.0664828 41.58560258 56.08435689 38.43969727 56.10009766 C37.54186523 56.10847656 36.6440332 56.11685547 35.71899414 56.12548828 C34.43798828 56.13032227 34.43798828 56.13032227 33.13110352 56.13525391 C32.34034424 56.14049072 31.54958496 56.14572754 30.73486328 56.15112305 C28.87719727 56.03759766 28.87719727 56.03759766 27.87719727 55.03759766 C27.79087852 53.69492353 27.77013253 52.34785444 27.77954102 51.00244141 C27.78276367 50.19355469 27.78598633 49.38466797 27.78930664 48.55126953 C27.801875 47.27606445 27.801875 47.27606445 27.81469727 45.97509766 C27.81920898 45.12109375 27.8237207 44.26708984 27.82836914 43.38720703 C27.84019353 41.27064102 27.85812958 39.15411081 27.87719727 37.03759766 C23.91719727 37.03759766 19.95719727 37.03759766 15.87719727 37.03759766 C15.81661133 38.18099609 15.75602539 39.32439453 15.69360352 40.50244141 C15.60921299 41.9933407 15.52456425 43.4842254 15.43969727 44.97509766 C15.40038086 45.72984375 15.36106445 46.48458984 15.32055664 47.26220703 C14.99047852 52.92431641 14.99047852 52.92431641 13.87719727 54.03759766 C7.49689348 54.46801498 1.19956584 53.85338715 -5.12280273 53.03759766 C-5.25791205 42.37897394 -4.91710768 31.79388895 -4.32324219 21.15283203 C-4.18279545 18.61733333 -4.05192676 16.08144873 -3.92163086 13.54541016 C-3.8343045 11.93079621 -3.74643536 10.3162115 -3.65795898 8.70166016 C-3.61937271 7.94454742 -3.58078644 7.18743469 -3.54103088 6.40737915 C-3.17437102 0.05622233 -3.17437102 0.05622233 0 0 Z " fill="#FBFBFB" transform="translate(306.122802734375,210.96240234375)"/>
<path d="M0 0 C4.58978038 -0.0992963 9.17892788 -0.17166748 13.76953125 -0.21972656 C15.32921244 -0.23977222 16.88881913 -0.26701657 18.44824219 -0.30175781 C20.69745314 -0.35059126 22.9456659 -0.37303815 25.1953125 -0.390625 C26.23161301 -0.42159271 26.23161301 -0.42159271 27.28884888 -0.45318604 C33.20762657 -0.45589449 36.4611345 1.81132284 40.8125 5.5625 C44.74503156 10.32293294 43.129803 18.20171256 43 24 C42.98211426 24.83031738 42.96422852 25.66063477 42.94580078 26.51611328 C42.87844549 29.17836801 42.78659817 31.83875049 42.6875 34.5 C42.66510254 35.34812256 42.64270508 36.19624512 42.61962891 37.07006836 C42.36761988 42.81781273 41.57963552 47.33322802 37.40991211 51.64379883 C33.93468354 53.59951706 30.61182549 53.3712643 26.734375 53.29296875 C25.94097717 53.28872391 25.14757935 53.28447906 24.33013916 53.28010559 C21.8030768 53.2633504 19.27682017 53.22570506 16.75 53.1875 C15.03386571 53.17244903 13.31771888 53.15876134 11.6015625 53.14648438 C7.40073254 53.11345735 3.20050275 53.06169765 -1 53 C-1.2005296 16.01000077 -1.2005296 16.01000077 0 0 Z " fill="#FDFDFD" transform="translate(256,210)"/>
<path d="M0 0 C1.00994019 0.09220825 1.00994019 0.09220825 2.0402832 0.1862793 C6.87519579 0.76293121 9.96300773 2.22488784 13.75 5.25 C16.24510914 8.9926637 16.09180559 11.91187155 16.0625 16.25 C16.06048584 17.06001465 16.05847168 17.8700293 16.05639648 18.70458984 C15.54900649 51.45099351 15.54900649 51.45099351 11.75 55.25 C9.29607777 55.18487782 6.88300659 55.05801265 4.4375 54.875 C3.76009766 54.83117187 3.08269531 54.78734375 2.38476562 54.7421875 C-0.97615257 54.50564194 -3.96637128 54.07090718 -7.25 53.25 C-7.25 49.29 -7.25 45.33 -7.25 41.25 C-8.24 41.25 -9.23 41.25 -10.25 41.25 C-10.23839844 41.96027344 -10.22679687 42.67054688 -10.21484375 43.40234375 C-10.20582031 44.32144531 -10.19679688 45.24054688 -10.1875 46.1875 C-10.17589844 47.10402344 -10.16429687 48.02054687 -10.15234375 48.96484375 C-10.25 51.25 -10.25 51.25 -11.25 52.25 C-13.47643462 52.37680356 -15.70748777 52.42584894 -17.9375 52.4375 C-19.15824219 52.45167969 -20.37898438 52.46585937 -21.63671875 52.48046875 C-25.21107783 52.2524826 -27.8978783 51.44092804 -31.25 50.25 C-30.77497438 44.5370914 -30.27788617 38.826682 -29.76074219 33.11743164 C-29.58807605 31.17720099 -29.42132652 29.23643396 -29.26074219 27.29516602 C-29.02812965 24.49591818 -28.77391716 21.69932489 -28.515625 18.90234375 C-28.44877502 18.0416478 -28.38192505 17.18095184 -28.31304932 16.29417419 C-27.68192 9.80478335 -26.10157397 4.8499645 -21.125 0.3125 C-14.4257958 -2.16329286 -6.96783061 -0.7313944 0 0 Z M-7.25 18.25 C-7.25 19.57 -7.25 20.89 -7.25 22.25 C-6.59 22.25 -5.93 22.25 -5.25 22.25 C-4.92 20.93 -4.59 19.61 -4.25 18.25 C-5.24 18.25 -6.23 18.25 -7.25 18.25 Z " fill="#FAFAFA" transform="translate(387.25,216.75)"/>
<path d="M0 0 C1.72395082 1.72395082 1.35429963 4.08359246 1.53515625 6.44140625 C1.62265137 7.57545898 1.71014648 8.70951172 1.80029297 9.87792969 C4.13664394 42.70866417 4.13664394 42.70866417 1.375 48.3125 C-1.99360324 52.12434051 -5.26701743 53.73101811 -10.296875 54.51171875 C-13.86433029 54.69331998 -17.43039568 54.8663364 -21 55 C-21.96421875 55.06445312 -22.9284375 55.12890625 -23.921875 55.1953125 C-29.48325025 55.44810228 -32.69038597 54.88916388 -37 51 C-40.35205445 46.59373678 -40.69475127 42.46878361 -41.125 37.125 C-41.20210205 36.26672607 -41.2792041 35.40845215 -41.35864258 34.52416992 C-41.95809493 27.46303897 -42.35350995 20.39064786 -42.6875 13.3125 C-42.73600098 12.30268066 -42.78450195 11.29286133 -42.83447266 10.25244141 C-42.87233887 9.31964355 -42.91020508 8.3868457 -42.94921875 7.42578125 C-42.98362061 6.59473877 -43.01802246 5.76369629 -43.0534668 4.9074707 C-43 3 -43 3 -42 2 C-40.58429877 1.91348389 -39.164405 1.89295096 -37.74609375 1.90234375 C-36.46508789 1.90717773 -36.46508789 1.90717773 -35.15820312 1.91210938 C-34.26037109 1.92048828 -33.36253906 1.92886719 -32.4375 1.9375 C-31.53580078 1.94201172 -30.63410156 1.94652344 -29.70507812 1.95117188 C-27.46998686 1.96299775 -25.23502563 1.9794778 -23 2 C-22.25077302 6.16603133 -21.76636652 10.27086869 -21.46484375 14.4921875 C-21.37783203 15.69101563 -21.29082031 16.88984375 -21.20117188 18.125 C-21.11416016 19.3625 -21.02714844 20.6 -20.9375 21.875 C-20.84662109 23.13570312 -20.75574219 24.39640625 -20.66210938 25.6953125 C-20.43890313 28.79670459 -20.21828483 31.89825829 -20 35 C-19.34 35 -18.68 35 -18 35 C-18.0721875 33.88625 -18.144375 32.7725 -18.21875 31.625 C-18.85086021 21.40081447 -19.12558879 11.24246381 -19 1 C-12.67464804 0.04522989 -6.39881105 -0.38235426 0 0 Z " fill="#FBFBFB" transform="translate(183,212)"/>
<path d="M0 0 C2.82165806 2.82165806 2.0625 9.70599898 2.0625 13.4375 C2.04663375 14.95839326 2.02753831 16.4792733 2 18 C-0.97 18.33 -3.94 18.66 -7 19 C-6.90912109 19.81154541 -6.81824219 20.62309082 -6.72460938 21.45922852 C-6.31245588 25.15989133 -5.90617588 28.86117653 -5.5 32.5625 C-5.35691406 33.83931641 -5.21382812 35.11613281 -5.06640625 36.43164062 C-4.86337891 38.29272461 -4.86337891 38.29272461 -4.65625 40.19140625 C-4.53056641 41.32779541 -4.40488281 42.46418457 -4.27539062 43.63500977 C-3.9913804 47.1053227 -3.95357011 50.51969272 -4 54 C-10.41013032 55.31973271 -16.44491247 56.36417153 -23 56 C-25.44817626 53.55182374 -25.11331364 47.93049583 -25.5625 44.625 C-25.70107422 43.67238281 -25.83964844 42.71976562 -25.98242188 41.73828125 C-26.89413096 35.10032049 -27.1260982 28.69965207 -27 22 C-30.3 22 -33.6 22 -37 22 C-39.1583195 15.92972642 -39.20852314 10.40629424 -39 4 C-31.02563195 2.60929388 -23.05516448 1.64375303 -15 0.875 C-14.0922583 0.78750488 -13.1845166 0.70000977 -12.24926758 0.60986328 C-4.02024859 -0.1511047 -4.02024859 -0.1511047 0 0 Z " fill="#F9F9F9" transform="translate(135,215)"/>
<path d="M0 0 C0.66 0 1.32 0 2 0 C2.66 0.66 3.32 1.32 4 2 C4.66 2 5.32 2 6 2 C6.66 4.97 7.32 7.94 8 11 C11.3 11.33 14.6 11.66 18 12 C19.32 22.89 20.64 33.78 22 45 C26.3621875 45.0928125 26.3621875 45.0928125 30.8125 45.1875 C31.72491455 45.21481201 32.6373291 45.24212402 33.57739258 45.27026367 C34.30079834 45.27775635 35.0242041 45.28524902 35.76953125 45.29296875 C36.50792236 45.3086792 37.24631348 45.32438965 38.00708008 45.34057617 C40.52230522 44.91074167 41.39441516 43.92536938 43 42 C43.66 42.99 44.32 43.98 45 45 C45.66 42.03 46.32 39.06 47 36 C48.625 37.625 48.625 37.625 50 40 C49.1441713 45.02799364 47.01116532 47.92761805 43 51 C40.04688611 52.11346917 37.12075168 52.58296261 34 53 C32.99710938 53.14566406 31.99421875 53.29132813 30.9609375 53.44140625 C26.42591525 53.97593121 22.86221028 54.24202394 18.4375 53 C13.42487962 48.88708072 12.63467628 43.01659939 12.02539062 36.875 C11.95513672 36.05 11.88488281 35.225 11.8125 34.375 C11.6897168 33.12589844 11.6897168 33.12589844 11.56445312 31.8515625 C11.18910239 27.88987746 10.89430515 23.9838829 11 20 C9.39125 19.6596875 9.39125 19.6596875 7.75 19.3125 C3.41420963 17.79497337 2.23361883 16.97087792 0 13 C-1.01772451 9.69898683 -1.84760863 6.45811181 -2 3 C-1.34 2.01 -0.68 1.02 0 0 Z " fill="#211E1F" transform="translate(90,225)"/>
<path d="M0 0 C1.02019573 0.9793879 2.02149805 1.97895449 3 3 C5.16299211 2.77242269 5.16299211 2.77242269 7 2 C7.33 2.99 7.66 3.98 8 5 C8.99 5.66 9.98 6.32 11 7 C10.125 11.75 10.125 11.75 9 14 C8.70629032 16.32054617 8.46383669 18.64765978 8.24609375 20.9765625 C8.18092056 21.66181 8.11574738 22.3470575 8.04859924 23.05307007 C7.84115064 25.24337911 7.63926259 27.43416058 7.4375 29.625 C7.29789175 31.10940944 7.15792228 32.59378496 7.01757812 34.078125 C6.67419201 37.71836557 6.33579123 41.3590501 6 45 C5.67 45 5.34 45 5 45 C5.01160156 44.02417969 5.02320313 43.04835937 5.03515625 42.04296875 C5.04417969 40.77066406 5.05320312 39.49835938 5.0625 38.1875 C5.07410156 36.92292969 5.08570313 35.65835938 5.09765625 34.35546875 C5.16159116 31.00394763 5.16159116 31.00394763 4 28 C3.01 27.67 2.02 27.34 1 27 C1.33 28.98 1.66 30.96 2 33 C-1.465 31.515 -1.465 31.515 -5 30 C-5 29.01 -5 28.02 -5 27 C-4.05125 26.731875 -3.1025 26.46375 -2.125 26.1875 C1.25267273 25.25013412 1.25267273 25.25013412 3 22 C3.27395784 19.46516906 3.41562045 17.09809624 3.4375 14.5625 C3.47746094 13.24378906 3.51742188 11.92507812 3.55859375 10.56640625 C3.33923688 6.88036359 3.33923688 6.88036359 0.66015625 4.65234375 C-0.21769531 4.10707031 -1.09554688 3.56179687 -2 3 C-2.99 2.34 -3.98 1.68 -5 1 C-2.6875 0.3125 -2.6875 0.3125 0 0 Z " fill="#343334" transform="translate(352,212)"/>
<path d="M0 0 C-0.33 1.65 -0.66 3.3 -1 5 C-0.34 5.33 0.32 5.66 1 6 C-2.4255664 7.050838 -5.55406592 7.10198207 -9.125 7.0625 C-10.17945313 7.05347656 -11.23390625 7.04445312 -12.3203125 7.03515625 C-13.20460937 7.02355469 -14.08890625 7.01195312 -15 7 C-15.66 7 -16.32 7 -17 7 C-19.00212229 6.67966043 -21.00239695 6.34740923 -23 6 C-22.67 5.01 -22.34 4.02 -22 3 C-24.31 2.67 -26.62 2.34 -29 2 C-29 1.67 -29 1.34 -29 1 C-19.30429046 0.07027443 -9.72657452 -0.11237377 0 0 Z " fill="#231F20" transform="translate(154,207)"/>
<path d="M0 0 C-0.49625607 12.34736174 -0.9965861 24.68149322 -2 37 C-2.33 37 -2.66 37 -3 37 C-3.4640625 35.329375 -3.4640625 35.329375 -3.9375 33.625 C-4.82326483 30.2054845 -4.82326483 30.2054845 -6 28 C-6.08853296 24.76794049 -5.85520995 21.54034222 -5.6875 18.3125 C-5.65205078 17.42626953 -5.61660156 16.54003906 -5.58007812 15.62695312 C-5.32391654 10.46166502 -4.80414849 5.86533907 -3 1 C-1 0 -1 0 0 0 Z " fill="#454344" transform="translate(303,226)"/>
<path d="M0 0 C6.52307692 -0.36923077 6.52307692 -0.36923077 8.9375 1.5 C9.288125 1.995 9.63875 2.49 10 3 C9.34 4.65 8.68 6.3 8 8 C15.26 8 22.52 8 30 8 C30 8.33 30 8.66 30 9 C17.26378381 10.48899396 7.58584914 11.20943403 -3 3 C-2.01 2.67 -1.02 2.34 0 2 C0 1.34 0 0.68 0 0 Z " fill="#151415" transform="translate(143,265)"/>
<path d="M0 0 C0.99 0 1.98 0 3 0 C3.08704 4.58321382 3.14040632 9.16621534 3.1875 13.75 C3.21263672 15.05195313 3.23777344 16.35390625 3.26367188 17.6953125 C3.27333984 18.94570312 3.28300781 20.19609375 3.29296875 21.484375 C3.3086792 22.63647461 3.32438965 23.78857422 3.34057617 24.97558594 C2.9698672 28.26758786 2.22615202 29.60695077 0 32 C-2.03174603 6.0952381 -2.03174603 6.0952381 0 0 Z M0 9 C0.33 10.65 0.66 12.3 1 14 C1.33 14 1.66 14 2 14 C2 12.35 2 10.7 2 9 C1.34 9 0.68 9 0 9 Z " fill="#545152" transform="translate(229,211)"/>
<path d="M0 0 C0.99 0 1.98 0 3 0 C3 6.93 3 13.86 3 21 C1.68 21 0.36 21 -1 21 C-1.02888146 17.68751813 -1.04675799 14.37506833 -1.0625 11.0625 C-1.07087891 10.11697266 -1.07925781 9.17144531 -1.08789062 8.19726562 C-1.09111328 7.29814453 -1.09433594 6.39902344 -1.09765625 5.47265625 C-1.10289307 4.64000244 -1.10812988 3.80734863 -1.11352539 2.94946289 C-1 1 -1 1 0 0 Z " fill="#444243" transform="translate(276,226)"/>
<path d="M0 0 C0.66 0 1.32 0 2 0 C3.11823815 2.23647631 3.19396061 3.64891529 3.31640625 6.1328125 C3.35830078 6.93847656 3.40019531 7.74414062 3.44335938 8.57421875 C3.48267578 9.41597656 3.52199219 10.25773438 3.5625 11.125 C3.60568359 11.97449219 3.64886719 12.82398438 3.69335938 13.69921875 C3.79954236 15.79928223 3.90028497 17.89961948 4 20 C2.68 20 1.36 20 0 20 C-0.19421438 17.04196565 -0.38066186 14.08379837 -0.5625 11.125 C-0.61857422 10.28324219 -0.67464844 9.44148437 -0.73242188 8.57421875 C-0.78076172 7.76855469 -0.82910156 6.96289062 -0.87890625 6.1328125 C-0.9260376 5.38918457 -0.97316895 4.64555664 -1.02172852 3.87939453 C-1 2 -1 2 0 0 Z " fill="#3F3D3E" transform="translate(162,227)"/>
<path d="M0 0 C1.32 0 2.64 0 4 0 C5.03590199 5.05002222 5.10251672 9.87416389 5 15 C3.02 15.99 3.02 15.99 1 17 C0.67 11.39 0.34 5.78 0 0 Z " fill="#2D2B2C" transform="translate(136,215)"/>
<path d="M0 0 C0.33 0 0.66 0 1 0 C1.04937279 4.66307014 1.08570627 9.32598873 1.10986328 13.98925781 C1.11993188 15.57619883 1.13358767 17.16312125 1.15087891 18.75 C1.17509001 21.02869247 1.18647422 23.30714006 1.1953125 25.5859375 C1.20563507 26.29744965 1.21595764 27.00896179 1.22659302 27.74203491 C1.22699422 29.49631665 1.12202209 31.24996709 1 33 C0.34 33.66 -0.32 34.32 -1 35 C-3.125 34.625 -3.125 34.625 -5 34 C-4.01 31.03 -4.01 31.03 -3 28 C-2.34 28 -1.68 28 -1 28 C-0.67 18.76 -0.34 9.52 0 0 Z M-8 35 C-6 36 -6 36 -6 36 Z " fill="#4B4A4A" transform="translate(188,228)"/>
<path d="M0 0 C0 0.33 0 0.66 0 1 C-2.97 1 -5.94 1 -9 1 C-9 1.99 -9 2.98 -9 4 C-8.34 4.33 -7.68 4.66 -7 5 C-7.66 5 -8.32 5 -9 5 C-9.33 5.66 -9.66 6.32 -10 7 C-12.7283768 7 -15.31654063 6.46668859 -18 6 C-17.67 5.01 -17.34 4.02 -17 3 C-19.31 2.67 -21.62 2.34 -24 2 C-24 1.67 -24 1.34 -24 1 C-15.97875848 0.28586721 -8.05358138 -0.14525497 0 0 Z " fill="#191617" transform="translate(149,207)"/>
<path d="M0 0 C2.46800047 1.15173355 4.04783565 2.04783565 6 4 C6 4.66 6 5.32 6 6 C-1.92 5.67 -9.84 5.34 -18 5 C-14.46939899 2.64626599 -11.41404244 2.34221585 -7.3125 1.875 C-6.61060547 1.78863281 -5.90871094 1.70226562 -5.18554688 1.61328125 C-3.45788855 1.40173125 -1.7290434 1.199914 0 1 C0 0.67 0 0.34 0 0 Z " fill="#0B0A0A" transform="translate(385,205)"/>
<path d="M0 0 C1.0621875 0.26554687 2.124375 0.53109375 3.21875 0.8046875 C4.24742188 1.06185547 4.24742188 1.06185547 5.296875 1.32421875 C6.02390625 1.50597656 6.7509375 1.68773437 7.5 1.875 C8.19609375 2.04902344 8.8921875 2.22304688 9.609375 2.40234375 C12.51171875 3.12792969 15.4140625 3.85351562 18.31640625 4.57910156 C19.04730469 4.76182617 19.77820313 4.94455078 20.53125 5.1328125 C21.6759375 5.41898437 22.820625 5.70515625 24 6 C23.01 6.33 22.02 6.66 21 7 C21 7.66 21 8.32 21 9 C16.51209428 8.29550317 12.44363814 6.74722746 8.25 5.0625 C7.56550781 4.79759766 6.88101563 4.53269531 6.17578125 4.25976562 C1.12153583 2.24307166 1.12153583 2.24307166 0 0 Z " fill="#BDBDBD" transform="translate(119,299)"/>
<path d="M0 0 C0.4125 0.515625 0.825 1.03125 1.25 1.5625 C1.8275 2.036875 2.405 2.51125 3 3 C5.16299211 2.77242269 5.16299211 2.77242269 7 2 C7.33 2.99 7.66 3.98 8 5 C8.99 5.66 9.98 6.32 11 7 C10.67 8.65 10.34 10.3 10 12 C9.67 11.01 9.34 10.02 9 9 C6.98491642 8.26676204 6.98491642 8.26676204 5 8 C4.67 8.66 4.34 9.32 4 10 C3.443125 8.8553125 3.443125 8.8553125 2.875 7.6875 C0.6369085 4.47956885 -1.44211433 3.5022184 -5 2 C-4.360625 1.855625 -3.72125 1.71125 -3.0625 1.5625 C-1.02454854 1.18992819 -1.02454854 1.18992819 0 0 Z " fill="#2D2A2B" transform="translate(352,212)"/>
<path d="M0 0 C12.21 0 24.42 0 37 0 C37 0.33 37 0.66 37 1 C23.635 1.495 23.635 1.495 10 2 C10 2.66 10 3.32 10 4 C6.58978257 3.21302675 3.31114834 2.12880057 0 1 C0 0.67 0 0.34 0 0 Z " fill="#0A0809" transform="translate(290,204)"/>
<path d="M0 0 C3 3 3 3 3.3984375 5.77734375 C3.39070312 6.82019531 3.38296875 7.86304688 3.375 8.9375 C3.38273438 9.97777344 3.39046875 11.01804688 3.3984375 12.08984375 C3 15 3 15 0 19 C0 12.73 0 6.46 0 0 Z " fill="#1B1B1B" transform="translate(229,224)"/>
<path d="M0 0 C3.96 0 7.92 0 12 0 C12 1.32 12 2.64 12 4 C7.83861737 4.08159574 4.0527516 3.98248524 0 3 C0 2.01 0 1.02 0 0 Z " fill="#4B4B4B" transform="translate(323,228)"/>
<path d="M0 0 C1.98 0.99 3.96 1.98 6 3 C4.125 5.625 4.125 5.625 1 8 C-2.48555794 7.84567759 -5.67181395 7.01461206 -9 6 C-9 5.67 -9 5.34 -9 5 C-7.02 5 -5.04 5 -3 5 C-3 4.34 -3 3.68 -3 3 C-1.5 1.375 -1.5 1.375 0 0 Z " fill="#353233" transform="translate(397,212)"/>
<path d="M0 0 C0.33 0 0.66 0 1 0 C1 1.65 1 3.3 1 5 C1.66 5 2.32 5 3 5 C3 9.29 3 13.58 3 18 C2.01 18 1.02 18 0 18 C0 12.06 0 6.12 0 0 Z " fill="#535152" transform="translate(252,244)"/>
<path d="M0 0 C0.66 0 1.32 0 2 0 C2.66 0.66 3.32 1.32 4 2 C4.66 2.33 5.32 2.66 6 3 C4.625 4.5 4.625 4.5 3 6 C2.34 6 1.68 6 1 6 C1 8.31 1 10.62 1 13 C-0.88649506 9.73007522 -1.67972144 6.76327304 -2 3 C-1.34 2.01 -0.68 1.02 0 0 Z " fill="#181617" transform="translate(90,225)"/>
<path d="M0 0 C5.75 0.875 5.75 0.875 8 2 C7.2575 2.6496875 7.2575 2.6496875 6.5 3.3125 C4.66781808 4.99740483 4.66781808 4.99740483 5 8 C3.68 8 2.36 8 1 8 C1.020625 7.236875 1.04125 6.47375 1.0625 5.6875 C1.12942841 2.89814214 1.12942841 2.89814214 0 0 Z " fill="#161315" transform="translate(357,210)"/>
<path d="M0 0 C0.66 1.32 1.32 2.64 2 4 C2.33 4.33 2.66 4.66 3 5 C3.04063832 6.66617115 3.042721 8.33388095 3 10 C2.01 10.33 1.02 10.66 0 11 C0 7.37 0 3.74 0 0 Z " fill="#4A494A" transform="translate(354,254)"/>
<path d="M0 0 C0.99 0 1.98 0 3 0 C3 2.64 3 5.28 3 8 C2.01 7.67 1.02 7.34 0 7 C0 4.69 0 2.38 0 0 Z " fill="#292828" transform="translate(377,258)"/>
<path d="M0 0 C1.5 1 1.5 1 3 3 C3.27345479 5.71846235 3.13491285 8.25677199 3 11 C0.39665076 8.28817788 0.00543309 7.10866187 -0.1875 3.25 C-0.125625 2.1775 -0.06375 1.105 0 0 Z " fill="#332D32" transform="translate(229,224)"/>
<path d="M0 0 C1.17755859 0.39638672 1.17755859 0.39638672 2.37890625 0.80078125 C4.4375 1.6875 4.4375 1.6875 6.4375 3.6875 C4.85282272 3.40322583 3.2697943 3.10975182 1.6875 2.8125 C0.36492187 2.56886719 0.36492187 2.56886719 -0.984375 2.3203125 C-3.43197744 1.71953736 -5.36849857 0.90752883 -7.5625 -0.3125 C-4.14059319 -1.4531356 -3.30079769 -1.14739425 0 0 Z " fill="#818181" transform="translate(365.5625,193.3125)"/>
<path d="M0 0 C3.59391114 1.33488128 6.75490696 2.96022723 10 5 C8 6 8 6 5.6171875 5.22265625 C4.71226563 4.83980469 3.80734375 4.45695312 2.875 4.0625 C1.50988281 3.49208984 1.50988281 3.49208984 0.1171875 2.91015625 C-0.58148438 2.60980469 -1.28015625 2.30945313 -2 2 C-1.34 1.34 -0.68 0.68 0 0 Z " fill="#878787" transform="translate(103,290)"/>
<path d="M0 0 C1.0625 1.875 1.0625 1.875 2 4 C1.67 4.66 1.34 5.32 1 6 C-1.92879371 5.37240135 -4.36095629 4.41377341 -7 3 C-5.02 3 -3.04 3 -1 3 C-0.67 2.01 -0.34 1.02 0 0 Z " fill="#322F30" transform="translate(355,264)"/>
<path d="M0 0 C5.94 1.485 5.94 1.485 12 3 C8 5 8 5 5.859375 4.3203125 C5.16328125 3.92585938 4.4671875 3.53140625 3.75 3.125 C3.04359375 2.73570312 2.3371875 2.34640625 1.609375 1.9453125 C1.07828125 1.63335937 0.5471875 1.32140625 0 1 C0 0.67 0 0.34 0 0 Z " fill="#7B7B7B" transform="translate(119,299)"/>
<path d="M0 0 C0.99 0 1.98 0 3 0 C3 1.65 3 3.3 3 5 C1.68 5 0.36 5 -1 5 C-0.67 3.35 -0.34 1.7 0 0 Z " fill="#494949" transform="translate(163,242)"/>
<path d="M0 0 C0.33 0.66 0.66 1.32 1 2 C-2.63 1.67 -6.26 1.34 -10 1 C-5.67161176 -1.16419412 -4.50257649 -1.20068706 0 0 Z " fill="#C1C1C1" transform="translate(360,191)"/>
<path d="M0 0 C0.66 0 1.32 0 2 0 C2 1.98 2 3.96 2 6 C1.01 6 0.02 6 -1 6 C-1.625 4.125 -1.625 4.125 -2 2 C-1.34 1.34 -0.68 0.68 0 0 Z " fill="#1F1E1E" transform="translate(139,230)"/>
<path d="M0 0 C2.97 0.495 2.97 0.495 6 1 C6 1.99 6 2.98 6 4 C5.01 4.33 4.02 4.66 3 5 C2.67 4.01 2.34 3.02 2 2 C1.34 2 0.68 2 0 2 C0 1.34 0 0.68 0 0 Z " fill="#231F20" transform="translate(90,223)"/>
<path d="M0 0 C1.32 0.99 2.64 1.98 4 3 C3.67 3.66 3.34 4.32 3 5 C1.68 5 0.36 5 -1 5 C-0.67 3.35 -0.34 1.7 0 0 Z " fill="#2C292A" transform="translate(404,217)"/>
<path d="M0 0 C0.99 1.32 1.98 2.64 3 4 C2.1875 7.25 2.1875 7.25 1 10 C0.67 10 0.34 10 0 10 C0 6.7 0 3.4 0 0 Z " fill="#080607" transform="translate(137,261)"/>
<path d="M0 0 C0.99 0 1.98 0 3 0 C3 1.65 3 3.3 3 5 C2.34 5 1.68 5 1 5 C0.67 5.66 0.34 6.32 0 7 C0 4.69 0 2.38 0 0 Z " fill="#211F1F" transform="translate(162,237)"/>
<path d="M0 0 C1.98 0 3.96 0 6 0 C6.33 0.99 6.66 1.98 7 3 C4.69 3 2.38 3 0 3 C0 2.01 0 1.02 0 0 Z " fill="#202020" transform="translate(323,228)"/>
<path d="" fill="#282828" transform="translate(0,0)"/>
<path d="" fill="#272727" transform="translate(0,0)"/>
</svg>
